<svg xmlns="http://www.w3.org/2000/svg" width="1180" height="506" viewBox="0 0 1180 506">
<rect width="1180" height="506" fill="white"/>
<text x="26" y="34" font-family="sans-serif" font-size="20" font-weight="bold">PyCBC fleet: new hdev head c38f24f, paired complete search</text>
<text x="26" y="56" font-family="sans-serif" font-size="12.5" fill="#444">Teal = versus contemporaneous alpha6. Orange = versus prior head c38f24f, the comparison that isolates these three commits.</text>
<text x="26" y="74" font-family="sans-serif" font-size="12.5" fill="#444">Grey caret = the c38f24f re-run measured earlier today (its own vs-prior result). Whiskers span the interleaved pair ratios.</text>
<line x1="384.1" y1="90" x2="384.1" y2="406" stroke="#e0e6ea"/>
<text x="384.1" y="424" text-anchor="middle" font-family="sans-serif" font-size="11.5" fill="#555">-10%</text>
<line x1="451.8" y1="90" x2="451.8" y2="406" stroke="#e0e6ea"/>
<text x="451.8" y="424" text-anchor="middle" font-family="sans-serif" font-size="11.5" fill="#555">-5%</text>
<line x1="519.5" y1="90" x2="519.5" y2="406" stroke="#e0e6ea"/>
<text x="519.5" y="424" text-anchor="middle" font-family="sans-serif" font-size="11.5" fill="#555">+0%</text>
<line x1="587.2" y1="90" x2="587.2" y2="406" stroke="#e0e6ea"/>
<text x="587.2" y="424" text-anchor="middle" font-family="sans-serif" font-size="11.5" fill="#555">+5%</text>
<line x1="654.8" y1="90" x2="654.8" y2="406" stroke="#e0e6ea"/>
<text x="654.8" y="424" text-anchor="middle" font-family="sans-serif" font-size="11.5" fill="#555">+10%</text>
<line x1="722.5" y1="90" x2="722.5" y2="406" stroke="#e0e6ea"/>
<text x="722.5" y="424" text-anchor="middle" font-family="sans-serif" font-size="11.5" fill="#555">+15%</text>
<line x1="790.2" y1="90" x2="790.2" y2="406" stroke="#e0e6ea"/>
<text x="790.2" y="424" text-anchor="middle" font-family="sans-serif" font-size="11.5" fill="#555">+20%</text>
<line x1="857.9" y1="90" x2="857.9" y2="406" stroke="#e0e6ea"/>
<text x="857.9" y="424" text-anchor="middle" font-family="sans-serif" font-size="11.5" fill="#555">+25%</text>
<line x1="925.5" y1="90" x2="925.5" y2="406" stroke="#e0e6ea"/>
<text x="925.5" y="424" text-anchor="middle" font-family="sans-serif" font-size="11.5" fill="#555">+30%</text>
<line x1="993.2" y1="90" x2="993.2" y2="406" stroke="#e0e6ea"/>
<text x="993.2" y="424" text-anchor="middle" font-family="sans-serif" font-size="11.5" fill="#555">+35%</text>
<line x1="1060.9" y1="90" x2="1060.9" y2="406" stroke="#e0e6ea"/>
<text x="1060.9" y="424" text-anchor="middle" font-family="sans-serif" font-size="11.5" fill="#555">+40%</text>
<line x1="519.5" y1="90" x2="519.5" y2="406" stroke="#9aa5ad" stroke-width="1.5"/>
<text x="222" y="109" text-anchor="end" font-family="sans-serif" font-size="13.5" font-weight="600">dev1</text>
<text x="222" y="124" text-anchor="end" font-family="sans-serif" font-size="10.5" fill="#777">Ryzen 9 5950X</text>
<rect x="519.5" y="93" width="195.6" height="12" fill="#16877a"/>
<text x="722.0" y="103" text-anchor="start" font-family="sans-serif" font-size="11.5">+14.4%</text>
<rect x="502.7" y="109" width="16.8" height="12" fill="#c4514b"/>
<text x="495.7" y="119" text-anchor="end" font-family="sans-serif" font-size="11.5">-1.2%</text>
<line x1="500.5" y1="115" x2="505.6" y2="115" stroke="#202b3a"/>
<line x1="500.5" y1="111" x2="500.5" y2="119" stroke="#202b3a"/>
<line x1="505.6" y1="111" x2="505.6" y2="119" stroke="#202b3a"/>
<path d="M 534.6 126 l -5 7 l 10 0 z" fill="#8d97a0"/>
<text x="222" y="161" text-anchor="end" font-family="sans-serif" font-size="13.5" font-weight="600">dev2</text>
<text x="222" y="176" text-anchor="end" font-family="sans-serif" font-size="10.5" fill="#777">Ryzen AI MAX+ 395</text>
<rect x="519.5" y="145" width="63.2" height="12" fill="#16877a"/>
<text x="589.7" y="155" text-anchor="start" font-family="sans-serif" font-size="11.5">+4.7%</text>
<rect x="519.5" y="161" width="15.1" height="12" fill="#c98c43"/>
<text x="541.6" y="171" text-anchor="start" font-family="sans-serif" font-size="11.5">+1.1%</text>
<line x1="498.4" y1="167" x2="562.0" y2="167" stroke="#202b3a"/>
<line x1="498.4" y1="163" x2="498.4" y2="171" stroke="#202b3a"/>
<line x1="562.0" y1="163" x2="562.0" y2="171" stroke="#202b3a"/>
<path d="M 607.2 178 l -5 7 l 10 0 z" fill="#8d97a0"/>
<text x="222" y="213" text-anchor="end" font-family="sans-serif" font-size="13.5" font-weight="600">dev3</text>
<text x="222" y="228" text-anchor="end" font-family="sans-serif" font-size="10.5" fill="#777">Ryzen 5 5500U</text>
<rect x="519.5" y="197" width="187.9" height="12" fill="#16877a"/>
<text x="714.4" y="207" text-anchor="start" font-family="sans-serif" font-size="11.5">+13.9%</text>
<rect x="519.5" y="213" width="44.4" height="12" fill="#c98c43"/>
<text x="570.9" y="223" text-anchor="start" font-family="sans-serif" font-size="11.5">+3.3%</text>
<line x1="547.1" y1="219" x2="579.2" y2="219" stroke="#202b3a"/>
<line x1="547.1" y1="215" x2="547.1" y2="223" stroke="#202b3a"/>
<line x1="579.2" y1="215" x2="579.2" y2="223" stroke="#202b3a"/>
<path d="M 438.0 230 l -5 7 l 10 0 z" fill="#8d97a0"/>
<text x="222" y="265" text-anchor="end" font-family="sans-serif" font-size="13.5" font-weight="600">dev4</text>
<text x="222" y="280" text-anchor="end" font-family="sans-serif" font-size="10.5" fill="#777">Core i5-13500H</text>
<rect x="519.5" y="249" width="482.2" height="12" fill="#16877a"/>
<text x="1008.7" y="259" text-anchor="start" font-family="sans-serif" font-size="11.5">+35.6%</text>
<rect x="519.5" y="265" width="56.1" height="12" fill="#c98c43"/>
<text x="582.6" y="275" text-anchor="start" font-family="sans-serif" font-size="11.5">+4.1%</text>
<line x1="569.3" y1="271" x2="578.9" y2="271" stroke="#202b3a"/>
<line x1="569.3" y1="267" x2="569.3" y2="275" stroke="#202b3a"/>
<line x1="578.9" y1="267" x2="578.9" y2="275" stroke="#202b3a"/>
<path d="M 467.1 282 l -5 7 l 10 0 z" fill="#8d97a0"/>
<text x="222" y="317" text-anchor="end" font-family="sans-serif" font-size="13.5" font-weight="600">sugwg-login2</text>
<text x="222" y="332" text-anchor="end" font-family="sans-serif" font-size="10.5" fill="#777">Xeon Platinum 8260</text>
<rect x="519.5" y="301" width="318.0" height="12" fill="#16877a"/>
<text x="844.5" y="311" text-anchor="start" font-family="sans-serif" font-size="11.5">+23.5%</text>
<rect x="517.1" y="317" width="2.4" height="12" fill="#c4514b"/>
<text x="510.1" y="327" text-anchor="end" font-family="sans-serif" font-size="11.5">-0.2%</text>
<line x1="503.1" y1="323" x2="528.7" y2="323" stroke="#202b3a"/>
<line x1="503.1" y1="319" x2="503.1" y2="327" stroke="#202b3a"/>
<line x1="528.7" y1="319" x2="528.7" y2="327" stroke="#202b3a"/>
<path d="M 512.9 334 l -5 7 l 10 0 z" fill="#8d97a0"/>
<text x="222" y="369" text-anchor="end" font-family="sans-serif" font-size="13.5" font-weight="600">Haswell</text>
<text x="222" y="384" text-anchor="end" font-family="sans-serif" font-size="10.5" fill="#777">Xeon E5-2698 v3</text>
<rect x="519.5" y="353" width="89.4" height="12" fill="#16877a"/>
<text x="615.9" y="363" text-anchor="start" font-family="sans-serif" font-size="11.5">+6.6%</text>
<rect x="519.5" y="369" width="72.3" height="12" fill="#c98c43"/>
<text x="598.8" y="379" text-anchor="start" font-family="sans-serif" font-size="11.5">+5.3%</text>
<line x1="581.7" y1="375" x2="604.8" y2="375" stroke="#202b3a"/>
<line x1="581.7" y1="371" x2="581.7" y2="379" stroke="#202b3a"/>
<line x1="604.8" y1="371" x2="604.8" y2="379" stroke="#202b3a"/>
<path d="M 522.2 386 l -5 7 l 10 0 z" fill="#8d97a0"/>
<text x="26" y="480" font-family="sans-serif" font-size="11.5" fill="#16877a">■ vs alpha6</text>
<text x="126" y="480" font-family="sans-serif" font-size="11.5" fill="#c98c43">■ vs prior head c38f24f</text>
<text x="256" y="480" font-family="sans-serif" font-size="11.5" fill="#8d97a0">▲ published vs prior hdev</text>
<text x="26" y="497" font-family="sans-serif" font-size="11" fill="#777">Host-to-host rates are descriptive, not a pooled benchmark. Each bar is the mean of interleaved paired runs on one pinned CPU.</text>
</svg>
